<?xml version="1.0" encoding="UTF-8" standalone="no"?>
<!DOCTYPE svg PUBLIC "-//W3C//DTD SVG 1.1//EN"
 "http://www.w3.org/Graphics/SVG/1.1/DTD/svg11.dtd">
<!-- Generated by graphviz version 2.26.3 (20100126.1600)
 -->
<!-- Title: controllers_diagram Pages: 1 -->
<svg width="469pt" height="435pt"
 viewBox="0.00 0.00 469.00 435.00" xmlns="http://www.w3.org/2000/svg" xmlns:xlink="http://www.w3.org/1999/xlink">
<g id="graph1" class="graph" transform="scale(1 1) rotate(0) translate(4 431)">
<title>controllers_diagram</title>
<polygon fill="none" stroke="none" points="-4,5 -4,-431 466,-431 466,5 -4,5"/>
<!-- _diagram_info -->
<g id="node1" class="node"><title>_diagram_info</title>
<text text-anchor="start" x="218" y="-97.3" font-family="Times Roman,serif" font-size="13.00">Controllers diagram</text>
<text text-anchor="start" x="218" y="-80.3" font-family="Times Roman,serif" font-size="13.00">Date: Jan 25 2016 &#45; 19:28</text>
<text text-anchor="start" x="218" y="-63.3" font-family="Times Roman,serif" font-size="13.00">Migration version: 20160114112551</text>
<text text-anchor="start" x="218" y="-46.3" font-family="Times Roman,serif" font-size="13.00">Generated by RailRoady 1.4.2</text>
<text text-anchor="start" x="218" y="-29.3" font-family="Times Roman,serif" font-size="13.00">http://railroady.prestonlee.com</text>
</g>
<!-- ReviewsController -->
<g id="node2" class="node"><title>ReviewsController</title>
<polyline fill="none" stroke="black" points="222,-153.5 400,-153.5 "/>
<path fill="none" stroke="black" d="M400,-153.5C406,-153.5 412,-159.5 412,-165.5"/>
<polyline fill="none" stroke="black" points="412,-165.5 412,-263.5 "/>
<path fill="none" stroke="black" d="M412,-263.5C412,-269.5 406,-275.5 400,-275.5"/>
<polyline fill="none" stroke="black" points="400,-275.5 222,-275.5 "/>
<path fill="none" stroke="black" d="M222,-275.5C216,-275.5 210,-269.5 210,-263.5"/>
<polyline fill="none" stroke="black" points="210,-263.5 210,-165.5 "/>
<path fill="none" stroke="black" d="M210,-165.5C210,-159.5 216,-153.5 222,-153.5"/>
<text text-anchor="middle" x="311" y="-258.9" font-family="Times Roman,serif" font-size="14.00">ReviewsController</text>
<polyline fill="none" stroke="black" points="210,-249.5 412,-249.5 "/>
<text text-anchor="start" x="218" y="-232.9" font-family="Times Roman,serif" font-size="14.00">create</text>
<text text-anchor="start" x="218" y="-214.9" font-family="Times Roman,serif" font-size="14.00">new</text>
<polyline fill="none" stroke="black" points="210,-205.5 412,-205.5 "/>
<text text-anchor="start" x="218" y="-188.9" font-family="Times Roman,serif" font-size="14.00">has_moviegoer_and_movie</text>
<polyline fill="none" stroke="black" points="210,-179.5 412,-179.5 "/>
<text text-anchor="start" x="218" y="-162.9" font-family="Times Roman,serif" font-size="14.00">_layout</text>
</g>
<!-- SessionsController -->
<g id="node3" class="node"><title>SessionsController</title>
<polyline fill="none" stroke="black" points="279,-305.5 399,-305.5 "/>
<path fill="none" stroke="black" d="M399,-305.5C405,-305.5 411,-311.5 411,-317.5"/>
<polyline fill="none" stroke="black" points="411,-317.5 411,-413.5 "/>
<path fill="none" stroke="black" d="M411,-413.5C411,-419.5 405,-425.5 399,-425.5"/>
<polyline fill="none" stroke="black" points="399,-425.5 279,-425.5 "/>
<path fill="none" stroke="black" d="M279,-425.5C273,-425.5 267,-419.5 267,-413.5"/>
<polyline fill="none" stroke="black" points="267,-413.5 267,-317.5 "/>
<path fill="none" stroke="black" d="M267,-317.5C267,-311.5 273,-305.5 279,-305.5"/>
<text text-anchor="middle" x="339" y="-408.9" font-family="Times Roman,serif" font-size="14.00">SessionsController</text>
<polyline fill="none" stroke="black" points="267,-399.5 411,-399.5 "/>
<text text-anchor="start" x="275" y="-382.9" font-family="Times Roman,serif" font-size="14.00">create</text>
<text text-anchor="start" x="275" y="-364.9" font-family="Times Roman,serif" font-size="14.00">destroy</text>
<polyline fill="none" stroke="black" points="267,-355.5 411,-355.5 "/>
<polyline fill="none" stroke="black" points="267,-331.5 411,-331.5 "/>
<text text-anchor="start" x="275" y="-314.9" font-family="Times Roman,serif" font-size="14.00">_layout</text>
</g>
<!-- MoviesController -->
<g id="node4" class="node"><title>MoviesController</title>
<polyline fill="none" stroke="black" points="13,-1.5 156,-1.5 "/>
<path fill="none" stroke="black" d="M156,-1.5C162,-1.5 168,-7.5 168,-13.5"/>
<polyline fill="none" stroke="black" points="168,-13.5 168,-253.5 "/>
<path fill="none" stroke="black" d="M168,-253.5C168,-259.5 162,-265.5 156,-265.5"/>
<polyline fill="none" stroke="black" points="156,-265.5 13,-265.5 "/>
<path fill="none" stroke="black" d="M13,-265.5C7,-265.5 1,-259.5 1,-253.5"/>
<polyline fill="none" stroke="black" points="1,-253.5 1,-13.5 "/>
<path fill="none" stroke="black" d="M1,-13.5C1,-7.5 7,-1.5 13,-1.5"/>
<text text-anchor="middle" x="84.5" y="-248.9" font-family="Times Roman,serif" font-size="14.00">MoviesController</text>
<polyline fill="none" stroke="black" points="1,-239.5 168,-239.5 "/>
<text text-anchor="start" x="9" y="-222.9" font-family="Times Roman,serif" font-size="14.00">create</text>
<text text-anchor="start" x="9" y="-204.9" font-family="Times Roman,serif" font-size="14.00">destroy</text>
<text text-anchor="start" x="9" y="-186.9" font-family="Times Roman,serif" font-size="14.00">edit</text>
<text text-anchor="start" x="9" y="-168.9" font-family="Times Roman,serif" font-size="14.00">index</text>
<text text-anchor="start" x="9" y="-150.9" font-family="Times Roman,serif" font-size="14.00">movies_with_filters</text>
<text text-anchor="start" x="9" y="-132.9" font-family="Times Roman,serif" font-size="14.00">movies_with_filters_2</text>
<text text-anchor="start" x="9" y="-114.9" font-family="Times Roman,serif" font-size="14.00">new</text>
<text text-anchor="start" x="9" y="-96.9" font-family="Times Roman,serif" font-size="14.00">search_tmdb</text>
<text text-anchor="start" x="9" y="-78.9" font-family="Times Roman,serif" font-size="14.00">show</text>
<text text-anchor="start" x="9" y="-60.9" font-family="Times Roman,serif" font-size="14.00">update</text>
<polyline fill="none" stroke="black" points="1,-51.5 168,-51.5 "/>
<polyline fill="none" stroke="black" points="1,-27.5 168,-27.5 "/>
<text text-anchor="start" x="9" y="-10.9" font-family="Times Roman,serif" font-size="14.00">_layout</text>
</g>
<!-- ApplicationController -->
<g id="node5" class="node"><title>ApplicationController</title>
<polyline fill="none" stroke="black" points="89,-305.5 226,-305.5 "/>
<path fill="none" stroke="black" d="M226,-305.5C232,-305.5 238,-311.5 238,-317.5"/>
<polyline fill="none" stroke="black" points="238,-317.5 238,-395.5 "/>
<path fill="none" stroke="black" d="M238,-395.5C238,-401.5 232,-407.5 226,-407.5"/>
<polyline fill="none" stroke="black" points="226,-407.5 89,-407.5 "/>
<path fill="none" stroke="black" d="M89,-407.5C83,-407.5 77,-401.5 77,-395.5"/>
<polyline fill="none" stroke="black" points="77,-395.5 77,-317.5 "/>
<path fill="none" stroke="black" d="M77,-317.5C77,-311.5 83,-305.5 89,-305.5"/>
<text text-anchor="middle" x="157.5" y="-390.9" font-family="Times Roman,serif" font-size="14.00">ApplicationController</text>
<polyline fill="none" stroke="black" points="77,-381.5 238,-381.5 "/>
<polyline fill="none" stroke="black" points="77,-357.5 238,-357.5 "/>
<text text-anchor="start" x="85" y="-340.9" font-family="Times Roman,serif" font-size="14.00">set_current_user</text>
<polyline fill="none" stroke="black" points="77,-331.5 238,-331.5 "/>
<text text-anchor="start" x="85" y="-314.9" font-family="Times Roman,serif" font-size="14.00">_layout</text>
</g>
</g>
</svg>
