<?xml version="1.0" encoding="UTF-8" standalone="no"?>
<!DOCTYPE svg PUBLIC "-//W3C//DTD SVG 1.1//EN"
 "http://www.w3.org/Graphics/SVG/1.1/DTD/svg11.dtd">
<!-- Generated by graphviz version 2.26.3 (20100126.1600)
 -->
<!-- Title: models_diagram Pages: 1 -->
<svg width="412pt" height="250pt"
 viewBox="0.00 0.00 412.00 250.00" xmlns="http://www.w3.org/2000/svg" xmlns:xlink="http://www.w3.org/1999/xlink">
<g id="graph1" class="graph" transform="scale(1 1) rotate(0) translate(4 246)">
<title>models_diagram</title>
<polygon fill="none" stroke="none" points="-4,5 -4,-246 409,-246 409,5 -4,5"/>
<!-- _diagram_info -->
<g id="node1" class="node"><title>_diagram_info</title>
<text text-anchor="start" x="8" y="-225.8" font-family="Times Roman,serif" font-size="13.00">Models diagram</text>
<text text-anchor="start" x="8" y="-208.8" font-family="Times Roman,serif" font-size="13.00">Date: Jan 25 2016 &#45; 19:28</text>
<text text-anchor="start" x="8" y="-191.8" font-family="Times Roman,serif" font-size="13.00">Migration version: 20160114112551</text>
<text text-anchor="start" x="8" y="-174.8" font-family="Times Roman,serif" font-size="13.00">Generated by RailRoady 1.4.2</text>
<text text-anchor="start" x="8" y="-157.8" font-family="Times Roman,serif" font-size="13.00">http://railroady.prestonlee.com</text>
</g>
<!-- Moviegoer -->
<g id="node2" class="node"><title>Moviegoer</title>
<ellipse fill="none" stroke="black" cx="330" cy="-195" rx="62.2254" ry="18.3848"/>
<text text-anchor="middle" x="330" y="-191.4" font-family="Times Roman,serif" font-size="14.00">Moviegoer</text>
</g>
<!-- Review -->
<g id="node3" class="node"><title>Review</title>
<ellipse fill="none" stroke="black" cx="330" cy="-19" rx="46.8775" ry="18.3848"/>
<text text-anchor="middle" x="330" y="-15.4" font-family="Times Roman,serif" font-size="14.00">Review</text>
</g>
<!-- Moviegoer&#45;&gt;Review -->
<g id="edge2" class="edge"><title>Moviegoer&#45;&gt;Review</title>
<path fill="none" stroke="#2d2d0f" d="M322.852,-168.748C317.098,-144.226 310.633,-106.61 315,-74 316.177,-65.2126 318.367,-55.8406 320.716,-47.3692"/>
<ellipse fill="none" stroke="#2d2d0f" cx="323.808" cy="-172.651" rx="4.00001" ry="4.00001"/>
<polygon fill="#2d2d0f" stroke="#2d2d0f" points="320.774,-47.1733 327.921,-38.856 322.189,-42.3778 323.605,-37.5823 323.605,-37.5823 323.605,-37.5823 322.189,-42.3778 319.289,-36.3085 320.774,-47.1733 320.774,-47.1733"/>
</g>
<!-- Movie -->
<g id="node4" class="node"><title>Movie</title>
<ellipse fill="none" stroke="black" cx="364" cy="-93" rx="39.8075" ry="18.3848"/>
<text text-anchor="middle" x="364" y="-89.4" font-family="Times Roman,serif" font-size="14.00">Movie</text>
</g>
<!-- Moviegoer&#45;&gt;Movie -->
<g id="edge4" class="edge"><title>Moviegoer&#45;&gt;Movie</title>
<path fill="none" stroke="#a564c7" d="M339.484,-166.548C344.196,-152.411 349.874,-135.379 354.578,-121.266"/>
<polygon fill="#a564c7" stroke="#a564c7" points="339.398,-166.805 331.967,-174.869 337.817,-171.548 336.236,-176.292 336.236,-176.292 336.236,-176.292 337.817,-171.548 340.505,-177.715 339.398,-166.805 339.398,-166.805"/>
<polygon fill="#a564c7" stroke="#a564c7" points="354.641,-121.077 362.072,-113.013 356.222,-116.333 357.803,-111.59 357.803,-111.59 357.803,-111.59 356.222,-116.333 353.534,-110.167 354.641,-121.077 354.641,-121.077"/>
</g>
<!-- Movie&#45;&gt;Review -->
<g id="edge6" class="edge"><title>Movie&#45;&gt;Review</title>
<path fill="none" stroke="#ab6e31" d="M352.25,-67.427C349.194,-60.7756 345.887,-53.5779 342.781,-46.8169"/>
<ellipse fill="none" stroke="#ab6e31" cx="353.925" cy="-71.0731" rx="4.00002" ry="4.00002"/>
<polygon fill="#ab6e31" stroke="#ab6e31" points="342.601,-46.4249 342.515,-35.4594 340.513,-41.8816 338.426,-37.3382 338.426,-37.3382 338.426,-37.3382 340.513,-41.8816 334.337,-39.2169 342.601,-46.4249 342.601,-46.4249"/>
</g>
</g>
</svg>
