<?xml version="1.0" encoding="UTF-8" standalone="no"?>
<!DOCTYPE svg PUBLIC "-//W3C//DTD SVG 1.1//EN"
 "http://www.w3.org/Graphics/SVG/1.1/DTD/svg11.dtd">
<!-- Generated by graphviz version 2.26.3 (20100126.1600)
 -->
<!-- Title: models_diagram Pages: 1 -->
<svg width="502pt" height="512pt"
 viewBox="0.00 0.00 502.00 512.00" xmlns="http://www.w3.org/2000/svg" xmlns:xlink="http://www.w3.org/1999/xlink">
<g id="graph1" class="graph" transform="scale(1 1) rotate(0) translate(4 508)">
<title>models_diagram</title>
<polygon fill="none" stroke="none" points="-4,5 -4,-508 499,-508 499,5 -4,5"/>
<!-- _diagram_info -->
<g id="node1" class="node"><title>_diagram_info</title>
<text text-anchor="start" x="8" y="-462.8" font-family="Times Roman,serif" font-size="13.00">Models diagram</text>
<text text-anchor="start" x="8" y="-445.8" font-family="Times Roman,serif" font-size="13.00">Date: Jan 25 2016 &#45; 19:27</text>
<text text-anchor="start" x="8" y="-428.8" font-family="Times Roman,serif" font-size="13.00">Migration version: 20160114112551</text>
<text text-anchor="start" x="8" y="-411.8" font-family="Times Roman,serif" font-size="13.00">Generated by RailRoady 1.4.2</text>
<text text-anchor="start" x="8" y="-394.8" font-family="Times Roman,serif" font-size="13.00">http://railroady.prestonlee.com</text>
</g>
<!-- Moviegoer -->
<g id="node2" class="node"><title>Moviegoer</title>
<polyline fill="none" stroke="black" points="279.5,-361 420.5,-361 "/>
<path fill="none" stroke="black" d="M420.5,-361C426.5,-361 432.5,-367 432.5,-373"/>
<polyline fill="none" stroke="black" points="432.5,-373 432.5,-491 "/>
<path fill="none" stroke="black" d="M432.5,-491C432.5,-497 426.5,-503 420.5,-503"/>
<polyline fill="none" stroke="black" points="420.5,-503 279.5,-503 "/>
<path fill="none" stroke="black" d="M279.5,-503C273.5,-503 267.5,-497 267.5,-491"/>
<polyline fill="none" stroke="black" points="267.5,-491 267.5,-373 "/>
<path fill="none" stroke="black" d="M267.5,-373C267.5,-367 273.5,-361 279.5,-361"/>
<text text-anchor="middle" x="350" y="-486.4" font-family="Times Roman,serif" font-size="14.00">Moviegoer</text>
<polyline fill="none" stroke="black" points="267.5,-477 432.5,-477 "/>
<text text-anchor="start" x="275.5" y="-460.4" font-family="Times Roman,serif" font-size="14.00">id :INTEGER</text>
<text text-anchor="start" x="275.5" y="-442.4" font-family="Times Roman,serif" font-size="14.00">name :varchar</text>
<text text-anchor="start" x="275.5" y="-424.4" font-family="Times Roman,serif" font-size="14.00">provider :varchar</text>
<text text-anchor="start" x="275.5" y="-406.4" font-family="Times Roman,serif" font-size="14.00">uid :varchar</text>
<text text-anchor="start" x="275.5" y="-388.4" font-family="Times Roman,serif" font-size="14.00">created_at :datetime</text>
<text text-anchor="start" x="275.5" y="-370.4" font-family="Times Roman,serif" font-size="14.00">updated_at :datetime</text>
</g>
<!-- Review -->
<g id="node3" class="node"><title>Review</title>
<polyline fill="none" stroke="black" points="277.5,-1 420.5,-1 "/>
<path fill="none" stroke="black" d="M420.5,-1C426.5,-1 432.5,-7 432.5,-13"/>
<polyline fill="none" stroke="black" points="432.5,-13 432.5,-113 "/>
<path fill="none" stroke="black" d="M432.5,-113C432.5,-119 426.5,-125 420.5,-125"/>
<polyline fill="none" stroke="black" points="420.5,-125 277.5,-125 "/>
<path fill="none" stroke="black" d="M277.5,-125C271.5,-125 265.5,-119 265.5,-113"/>
<polyline fill="none" stroke="black" points="265.5,-113 265.5,-13 "/>
<path fill="none" stroke="black" d="M265.5,-13C265.5,-7 271.5,-1 277.5,-1"/>
<text text-anchor="middle" x="349" y="-108.4" font-family="Times Roman,serif" font-size="14.00">Review</text>
<polyline fill="none" stroke="black" points="265.5,-99 432.5,-99 "/>
<text text-anchor="start" x="273.5" y="-82.4" font-family="Times Roman,serif" font-size="14.00">id :INTEGER</text>
<text text-anchor="start" x="273.5" y="-64.4" font-family="Times Roman,serif" font-size="14.00">potatoes :integer</text>
<text text-anchor="start" x="273.5" y="-46.4" font-family="Times Roman,serif" font-size="14.00">comments :text</text>
<text text-anchor="start" x="273.5" y="-28.4" font-family="Times Roman,serif" font-size="14.00">moviegoer_id :integer</text>
<text text-anchor="start" x="273.5" y="-10.4" font-family="Times Roman,serif" font-size="14.00">movie_id :integer</text>
</g>
<!-- Moviegoer&#45;&gt;Review -->
<g id="edge2" class="edge"><title>Moviegoer&#45;&gt;Review</title>
<path fill="none" stroke="#ef31b6" d="M318.029,-353.182C315.144,-343.486 312.681,-333.607 311,-324 298.587,-253.078 297.88,-232.795 311,-162 312.663,-153.027 315.107,-143.817 317.966,-134.798"/>
<ellipse fill="none" stroke="#ef31b6" cx="319.241" cy="-357.09" rx="4.00001" ry="4.00001"/>
<polygon fill="#ef31b6" stroke="#ef31b6" points="318.037,-134.588 325.482,-126.538 319.626,-129.848 321.216,-125.107 321.216,-125.107 321.216,-125.107 319.626,-129.848 316.949,-123.676 318.037,-134.588 318.037,-134.588"/>
</g>
<!-- Movie -->
<g id="node4" class="node"><title>Movie</title>
<polyline fill="none" stroke="black" points="331.5,-163 482.5,-163 "/>
<path fill="none" stroke="black" d="M482.5,-163C488.5,-163 494.5,-169 494.5,-175"/>
<polyline fill="none" stroke="black" points="494.5,-175 494.5,-311 "/>
<path fill="none" stroke="black" d="M494.5,-311C494.5,-317 488.5,-323 482.5,-323"/>
<polyline fill="none" stroke="black" points="482.5,-323 331.5,-323 "/>
<path fill="none" stroke="black" d="M331.5,-323C325.5,-323 319.5,-317 319.5,-311"/>
<polyline fill="none" stroke="black" points="319.5,-311 319.5,-175 "/>
<path fill="none" stroke="black" d="M319.5,-175C319.5,-169 325.5,-163 331.5,-163"/>
<text text-anchor="middle" x="407" y="-306.4" font-family="Times Roman,serif" font-size="14.00">Movie</text>
<polyline fill="none" stroke="black" points="319.5,-297 494.5,-297 "/>
<text text-anchor="start" x="327.5" y="-280.4" font-family="Times Roman,serif" font-size="14.00">id :INTEGER</text>
<text text-anchor="start" x="327.5" y="-262.4" font-family="Times Roman,serif" font-size="14.00">title :varchar(255)</text>
<text text-anchor="start" x="327.5" y="-244.4" font-family="Times Roman,serif" font-size="14.00">rating :varchar(255)</text>
<text text-anchor="start" x="327.5" y="-226.4" font-family="Times Roman,serif" font-size="14.00">description :text</text>
<text text-anchor="start" x="327.5" y="-208.4" font-family="Times Roman,serif" font-size="14.00">release_date :datetime</text>
<text text-anchor="start" x="327.5" y="-190.4" font-family="Times Roman,serif" font-size="14.00">created_at :datetime</text>
<text text-anchor="start" x="327.5" y="-172.4" font-family="Times Roman,serif" font-size="14.00">updated_at :datetime</text>
</g>
<!-- Moviegoer&#45;&gt;Movie -->
<g id="edge4" class="edge"><title>Moviegoer&#45;&gt;Movie</title>
<path fill="none" stroke="#379353" d="M374.441,-350.959C376.211,-345.09 378.002,-339.15 379.787,-333.232"/>
<polygon fill="#379353" stroke="#379353" points="374.356,-351.242 367.16,-359.517 372.912,-356.029 371.468,-360.817 371.468,-360.817 371.468,-360.817 372.912,-356.029 375.776,-362.116 374.356,-351.242 374.356,-351.242"/>
<polygon fill="#379353" stroke="#379353" points="379.892,-332.885 387.088,-324.61 381.336,-328.098 382.779,-323.311 382.779,-323.311 382.779,-323.311 381.336,-328.098 378.471,-322.012 379.892,-332.885 379.892,-332.885"/>
</g>
<!-- Movie&#45;&gt;Review -->
<g id="edge6" class="edge"><title>Movie&#45;&gt;Review</title>
<path fill="none" stroke="#6add66" d="M378.645,-155.003C376.451,-148.193 374.252,-141.367 372.098,-134.682"/>
<ellipse fill="none" stroke="#6add66" cx="379.911" cy="-158.932" rx="4.00001" ry="4.00001"/>
<polygon fill="#6add66" stroke="#6add66" points="372.047,-134.525 373.263,-123.627 370.514,-129.766 368.98,-125.007 368.98,-125.007 368.98,-125.007 370.514,-129.766 364.697,-126.387 372.047,-134.525 372.047,-134.525"/>
</g>
</g>
</svg>
